<mxfile host="D8O">
  <diagram id="peH" name="Normal">
    <mxGraphModel dx="0" dy="0" background="#FFFACD" grid="0" gridSize="10" guides="1" tooltips="1" connect="1" arrows="1" fold="1" page="1" pageScale="1" pageWidth="1169" pageHeight="827" math="0" shadow="1">
      <root>
        <mxCell id="page_root_peH" parent="peH"/>
        <mxCell id="node_root_peH" parent="page_root_peH"/>
        <mxCell id="peH-1" value="Square" style="whiteSpace=wrap;html=1;fillColor=#f5f5f5;strokeColor=#666666;fontColor=#333333" vertex="1" parent="node_root_peH">
          <mxGeometry x="0" y="0" width="160" height="160" as="geometry"/>
        </mxCell>
        <mxCell id="peH-2" value="Rectangle" style="whiteSpace=wrap;html=1;fillColor=#f5f5f5;strokeColor=#666666;fontColor=#333333" vertex="1" parent="node_root_peH">
          <mxGeometry x="0" y="0" width="200" height="120" as="geometry"/>
        </mxCell>
        <mxCell id="peH-3" value="Rectangle (Rounded)" style="whiteSpace=wrap;html=1;rounded=1;fillColor=#f5f5f5;strokeColor=#666666;fontColor=#333333" vertex="1" parent="node_root_peH">
          <mxGeometry x="0" y="0" width="200" height="120" as="geometry"/>
        </mxCell>
        <mxCell id="peH-4" value="Circle" style="whiteSpace=wrap;html=1;fillColor=#f5f5f5;strokeColor=#666666;fontColor=#333333;ellipse" vertex="1" parent="node_root_peH">
          <mxGeometry x="0" y="0" width="160" height="160" as="geometry"/>
        </mxCell>
        <mxCell id="peH-5" value="Process" style="whiteSpace=wrap;html=1;fillColor=#f5f5f5;strokeColor=#666666;fontColor=#333333;shape=process" vertex="1" parent="node_root_peH">
          <mxGeometry x="0" y="0" width="200" height="120" as="geometry"/>
        </mxCell>
        <mxCell id="peH-6" value="Ellipse" style="whiteSpace=wrap;html=1;fillColor=#f5f5f5;strokeColor=#666666;fontColor=#333333;ellipse" vertex="1" parent="node_root_peH">
          <mxGeometry x="0" y="0" width="200" height="120" as="geometry"/>
        </mxCell>
      </root>
    </mxGraphModel>
  </diagram>
  <diagram id="9EH" name="Sketch">
    <mxGraphModel dx="0" dy="0" background="#FFFACD" grid="0" gridSize="10" guides="1" tooltips="1" connect="1" arrows="1" fold="1" page="1" pageScale="1" pageWidth="1169" pageHeight="827" math="0" shadow="0">
      <root>
        <mxCell id="page_root_9EH" parent="9EH"/>
        <mxCell id="node_root_9EH" parent="page_root_9EH"/>
        <mxCell id="9EH-1" value="" style="whiteSpace=wrap;html=1;sketch=1;fillColor=#f5f5f5;strokeColor=#666666;fontColor=#333333" vertex="1" parent="node_root_9EH">
          <mxGeometry x="0" y="0" width="160" height="160" as="geometry"/>
        </mxCell>
        <mxCell id="9EH-2" value="" style="whiteSpace=wrap;html=1;sketch=1;fillColor=#f5f5f5;strokeColor=#666666;fontColor=#333333" vertex="1" parent="node_root_9EH">
          <mxGeometry x="0" y="0" width="200" height="120" as="geometry"/>
        </mxCell>
        <mxCell id="9EH-3" value="" style="whiteSpace=wrap;html=1;rounded=1;sketch=1;fillColor=#f5f5f5;strokeColor=#666666;fontColor=#333333" vertex="1" parent="node_root_9EH">
          <mxGeometry x="0" y="0" width="200" height="120" as="geometry"/>
        </mxCell>
      </root>
    </mxGraphModel>
  </diagram>
</mxfile>